<svg width="45" height="45" viewBox="0 0 45 45" fill="none" xmlns="http://www.w3.org/2000/svg">
<path fill-rule="evenodd" clip-rule="evenodd" d="M29.7875 7.82505C30.2088 7.40879 30.7082 7.07981 31.257 6.85696C31.8057 6.63412 32.3931 6.5218 32.9853 6.52644C33.5776 6.53109 34.1631 6.65261 34.7083 6.88403C35.2535 7.11546 35.7477 7.45224 36.1625 7.87505C39.8786 11.6371 41.9624 16.7121 41.9625 22.0001C41.9625 23.1935 41.4884 24.3381 40.6444 25.182C39.8005 26.0259 38.6559 26.5001 37.4625 26.5001C36.269 26.5001 35.1244 26.0259 34.2805 25.182C33.4366 24.3381 32.9625 23.1935 32.9625 22.0001C32.9625 19.0001 31.7375 16.2376 29.7375 14.2001C29.3204 13.7795 28.9904 13.2808 28.7665 12.7325C28.5426 12.1842 28.4292 11.597 28.4326 11.0048C28.4361 10.4125 28.5565 9.82675 28.7868 9.2811C29.0172 8.73545 29.353 8.24064 29.775 7.82505H29.7875Z" fill="url(#paint0_linear_65_52)"/>
<path fill-rule="evenodd" clip-rule="evenodd" d="M17.5 6.5C17.5 5.30653 17.9741 4.16193 18.818 3.31802C19.6619 2.47411 20.8065 2 22 2C27.5 2 32.5 4.25 36.1125 7.825C36.9629 8.66375 37.4452 9.80594 37.4534 11.0003C37.4616 12.1947 36.995 13.3434 36.1563 14.1938C35.7409 14.6148 35.2468 14.9499 34.702 15.18C34.1571 15.4101 33.5723 15.5306 32.9809 15.5346C31.7866 15.5428 30.6379 15.0762 29.7875 14.2375C27.7195 12.1747 24.9209 11.0112 22 11C20.8065 11 19.6619 10.5259 18.818 9.68198C17.9741 8.83807 17.5 7.69347 17.5 6.5Z" fill="url(#paint1_linear_65_52)"/>
<path fill-rule="evenodd" clip-rule="evenodd" d="M2 22C2 16.6957 4.10714 11.6086 7.85786 7.85787C11.6086 4.10714 16.6957 2 22 2C23.1935 2 24.3381 2.47411 25.182 3.31802C26.0259 4.16193 26.5 5.30653 26.5 6.5C26.5 7.69347 26.0259 8.83807 25.182 9.68198C24.3381 10.5259 23.1935 11 22 11C19.8212 10.9988 17.6912 11.6446 15.88 12.8555C14.0687 14.0665 12.6579 15.7881 11.8264 17.8019C10.9949 19.8157 10.7801 22.0312 11.2094 24.1672C11.6386 26.3033 12.6926 28.2637 14.2375 29.8C15.0762 30.6504 15.5428 31.7991 15.5346 32.9934C15.5264 34.1878 15.0441 35.33 14.1938 36.1688C13.3434 37.0075 12.1947 37.4741 11.0003 37.4659C9.80594 37.4577 8.66375 36.9754 7.825 36.125C4.09975 32.367 2.0067 27.2915 2 22Z" fill="url(#paint2_linear_65_52)"/>
<path fill-rule="evenodd" clip-rule="evenodd" d="M7.82505 29.8C8.24064 29.378 8.73545 29.0422 9.2811 28.8119C9.82675 28.5815 10.4125 28.4611 11.0048 28.4577C11.597 28.4542 12.1842 28.5676 12.7325 28.7916C13.2808 29.0155 13.7795 29.3454 14.2001 29.7625C16.2681 31.8253 19.0666 32.9887 21.9876 33C23.181 33 24.3256 33.4741 25.1695 34.318C26.0134 35.1619 26.4876 36.3065 26.4876 37.5C26.4876 38.6935 26.0134 39.8381 25.1695 40.682C24.3256 41.5259 23.181 42 21.9876 42C16.4876 42 11.4876 39.75 7.86255 36.175C7.44056 35.7594 7.10477 35.2646 6.87442 34.7189C6.64407 34.1733 6.5237 33.5875 6.52022 32.9953C6.51674 32.403 6.6302 31.8159 6.85412 31.2676C7.07803 30.7192 7.40798 30.2205 7.82505 29.8Z" fill="url(#paint3_linear_65_52)"/>
<path fill-rule="evenodd" clip-rule="evenodd" d="M37.475 17.5C38.0659 17.5 38.6511 17.6164 39.1971 17.8425C39.743 18.0687 40.2391 18.4002 40.657 18.818C41.0748 19.2359 41.4063 19.732 41.6325 20.2779C41.8586 20.8239 41.975 21.4091 41.975 22C41.975 27.3 39.8713 32.3833 36.126 36.1333C32.3807 39.8833 27.3 41.9934 22 42C20.8065 42 19.6619 41.5259 18.818 40.682C17.9741 39.8381 17.5 38.6935 17.5 37.5C17.5 36.3065 17.9741 35.1619 18.818 34.318C19.6619 33.4741 20.8065 33 22 33C23.4445 33 24.8749 32.7155 26.2095 32.1627C27.5441 31.6099 28.7567 30.7996 29.7782 29.7782C30.7996 28.7567 31.6099 27.5441 32.1627 26.2095C32.7155 24.8749 33 23.4445 33 22C33 21.4091 33.1164 20.8239 33.3425 20.2779C33.5687 19.732 33.9002 19.2359 34.318 18.818C34.7359 18.4002 35.232 18.0687 35.7779 17.8425C36.3239 17.6164 36.9091 17.5 37.5 17.5H37.475Z" fill="url(#paint4_linear_65_52)"/>
<path fill-rule="evenodd" clip-rule="evenodd" d="M37.475 17.5C38.066 17.5 38.6511 17.6164 39.1971 17.8425C39.7431 18.0687 40.2392 18.4002 40.657 18.818C41.0749 19.2359 41.4063 19.732 41.6325 20.2779C41.8586 20.8239 41.975 21.4091 41.975 22V37.5C41.975 38.6935 41.5009 39.8381 40.657 40.682C39.8131 41.5259 38.6685 42 37.475 42C36.2816 42 35.137 41.5259 34.2931 40.682C33.4491 39.8381 32.975 38.6935 32.975 37.5V22C32.975 20.8065 33.4491 19.6619 34.2931 18.818C35.137 17.9741 36.2816 17.5 37.475 17.5Z" fill="url(#paint5_linear_65_52)"/>
<mask id="mask0_65_52" style="mask-type:luminance" maskUnits="userSpaceOnUse" x="33" y="17" width="9" height="10">
<path d="M33 17H42V27H33V17Z" fill="white"/>
</mask>
<g mask="url(#mask0_65_52)">
<path fill-rule="evenodd" clip-rule="evenodd" d="M29.7875 7.82505C30.2088 7.40879 30.7082 7.07981 31.257 6.85696C31.8057 6.63412 32.3931 6.5218 32.9853 6.52644C33.5776 6.53109 34.1631 6.65261 34.7083 6.88403C35.2535 7.11546 35.7477 7.45224 36.1625 7.87505C39.8786 11.6371 41.9624 16.7121 41.9625 22.0001C41.9625 23.1935 41.4884 24.3381 40.6444 25.182C39.8005 26.0259 38.6559 26.5001 37.4625 26.5001C36.269 26.5001 35.1244 26.0259 34.2805 25.182C33.4366 24.3381 32.9625 23.1935 32.9625 22.0001C32.9625 19.0001 31.7375 16.2376 29.7375 14.2001C29.3204 13.7795 28.9904 13.2808 28.7665 12.7325C28.5426 12.1842 28.4292 11.597 28.4326 11.0048C28.4361 10.4125 28.5565 9.82675 28.7868 9.2811C29.0172 8.73545 29.353 8.24064 29.775 7.82505H29.7875Z" fill="url(#paint6_linear_65_52)"/>
</g>
<defs>
<linearGradient id="paint0_linear_65_52" x1="35" y1="14.0001" x2="38" y2="20.7626" gradientUnits="userSpaceOnUse">
<stop stop-color="#7E22CE"/>
<stop offset="1" stop-color="#8B5CF6"/>
</linearGradient>
<linearGradient id="paint1_linear_65_52" x1="35.5" y1="13.75" x2="24.25" y2="6.5125" gradientUnits="userSpaceOnUse">
<stop stop-color="#EF4444"/>
<stop offset="1" stop-color="#DC2626"/>
</linearGradient>
<linearGradient id="paint2_linear_65_52" x1="6.5" y1="19.5125" x2="8.75" y2="33.0125" gradientUnits="userSpaceOnUse">
<stop stop-color="#22C55E"/>
<stop offset="1" stop-color="#15803D"/>
</linearGradient>
<linearGradient id="paint3_linear_65_52" x1="8.00005" y1="29.7625" x2="20" y2="38.5125" gradientUnits="userSpaceOnUse">
<stop stop-color="#94A3B8"/>
<stop offset="0.96" stop-color="#64748B"/>
<stop offset="1" stop-color="#64748B"/>
</linearGradient>
<linearGradient id="paint4_linear_65_52" x1="37.5" y1="29.725" x2="29.7375" y2="37.5" gradientUnits="userSpaceOnUse">
<stop stop-color="#D97706"/>
<stop offset="1" stop-color="#FBBF24"/>
</linearGradient>
<linearGradient id="paint5_linear_65_52" x1="38.5" y1="70.0375" x2="40.2875" y2="69.85" gradientUnits="userSpaceOnUse">
<stop stop-color="#FBBF24"/>
<stop offset="1" stop-color="#FBBF24"/>
</linearGradient>
<linearGradient id="paint6_linear_65_52" x1="35" y1="14.0001" x2="38" y2="20.7626" gradientUnits="userSpaceOnUse">
<stop stop-color="#7E22CE"/>
<stop offset="1" stop-color="#8B5CF6"/>
</linearGradient>
</defs>
</svg>
