<svg width="45" height="45" viewBox="0 0 45 45" fill="none" xmlns="http://www.w3.org/2000/svg">
<rect x="29" y="34.3145" width="11.9865" height="5.19684" transform="rotate(-29.1849 29 34.3145)" fill="#201D24"/>
<path d="M4.68103 11.996L7.43754 20.4074L13.3422 26.9983L22.0015 12.0005L39.322 11.9979C35.8626 6.02038 29.4014 2 22.0015 2C14.6016 2 8.1404 6.02102 4.68103 11.996Z" fill="url(#paint0_linear_65_50)"/>
<path d="M21.999 42L27.9037 35.4071L30.6583 26.9983H13.3403L4.67913 11.9979C1.23382 17.9819 0.981426 25.5888 4.68169 31.9976C8.38386 38.4064 15.0975 41.993 21.9996 42H21.999Z" fill="url(#paint1_linear_65_50)"/>
<path d="M39.322 12.0005H22.0015L30.6608 27.0002L22.0015 42C28.9062 41.9929 35.6198 38.4071 39.3195 31.9976C43.0197 25.5887 42.7673 17.9818 39.322 11.9998V12.0005Z" fill="url(#paint2_linear_65_50)"/>
<path d="M22.0015 31.9976C27.5232 31.9976 31.9994 27.5205 31.9994 21.9978C31.9994 16.475 27.5232 11.9979 22.0015 11.9979C16.4798 11.9979 12.0036 16.475 12.0036 21.9978C12.0036 27.5205 16.4798 31.9976 22.0015 31.9976Z" fill="white"/>
<path d="M22.0015 30.1229C26.4875 30.1229 30.1241 26.4852 30.1241 21.9978C30.1241 17.5104 26.4875 13.8727 22.0015 13.8727C17.5156 13.8727 13.879 17.5104 13.879 21.9978C13.879 26.4852 17.5156 30.1229 22.0015 30.1229Z" fill="#1A73E8"/>
<rect x="12" y="21" width="30" height="12" fill="#414141"/>
<path d="M18.3076 30V29.064H19.9816C20.4736 29.064 20.8936 28.965 21.2416 28.767C21.5896 28.569 21.8536 28.293 22.0336 27.939C22.2196 27.585 22.3126 27.18 22.3126 26.724C22.3126 26.274 22.2196 25.878 22.0336 25.536C21.8536 25.194 21.5896 24.93 21.2416 24.744C20.8996 24.552 20.4796 24.456 19.9816 24.456H18.3256V23.52H19.9816C20.6896 23.52 21.3076 23.652 21.8356 23.916C22.3636 24.18 22.7716 24.555 23.0596 25.041C23.3536 25.521 23.5006 26.088 23.5006 26.742C23.5006 27.396 23.3536 27.969 23.0596 28.461C22.7656 28.947 22.3546 29.325 21.8266 29.595C21.3046 29.865 20.6926 30 19.9906 30H18.3076ZM17.5966 30V23.52H18.7666V30H17.5966ZM24.3905 30V23.52H25.5605V30H24.3905ZM24.9485 30V29.073H29.0525V30H24.9485ZM24.9485 27.12V26.211H28.7375V27.12H24.9485ZM24.9485 24.447V23.52H28.9535V24.447H24.9485ZM31.9978 30L29.6128 23.52H30.8368L32.7898 29.172H32.5918L34.5448 23.52H35.7058L33.3298 30H31.9978Z" fill="#F5F5F5"/>
<defs>
<linearGradient id="paint0_linear_65_50" x1="4.39542" y1="14.3793" x2="39.0793" y2="14.3793" gradientUnits="userSpaceOnUse">
<stop stop-color="#D93025"/>
<stop offset="1" stop-color="#EA4335"/>
</linearGradient>
<linearGradient id="paint1_linear_65_50" x1="24.4516" y1="41.2803" x2="7.10801" y2="11.2402" gradientUnits="userSpaceOnUse">
<stop stop-color="#1E8E3E"/>
<stop offset="1" stop-color="#34A853"/>
</linearGradient>
<linearGradient id="paint2_linear_65_50" x1="37.0227" y1="11.6589" x2="19.68" y2="41.6975" gradientUnits="userSpaceOnUse">
<stop stop-color="#FBBC04"/>
<stop offset="1" stop-color="#FCC934"/>
</linearGradient>
</defs>
</svg>
