<svg width="45" height="45" viewBox="0 0 45 45" fill="none" xmlns="http://www.w3.org/2000/svg">
<path d="M41.2468 20.2187L23.782 2.75513C23.5427 2.51574 23.2587 2.32583 22.946 2.19626C22.6333 2.06669 22.2982 2 21.9598 2C21.6213 2 21.2862 2.06669 20.9735 2.19626C20.6608 2.32583 20.3768 2.51574 20.1375 2.75513L16.5122 6.38218L21.1118 10.9817C21.6525 10.7981 22.2339 10.7694 22.7901 10.8989C23.3463 11.0285 23.8551 11.3111 24.2591 11.7148C24.6653 12.1214 24.9488 12.6341 25.0773 13.1943C25.2058 13.7545 25.174 14.3396 24.9856 14.8826L29.4202 19.3158C29.9633 19.1272 30.5486 19.0954 31.109 19.2241C31.6693 19.3529 32.1821 19.6369 32.5884 20.0437C32.873 20.3283 33.0988 20.6661 33.2529 21.038C33.4069 21.4098 33.4862 21.8084 33.4862 22.2109C33.4862 22.6134 33.4069 23.0119 33.2529 23.3838C33.0988 23.7557 32.873 24.0935 32.5884 24.3781C32.013 24.953 31.2328 25.2758 30.4194 25.2758C29.6061 25.2758 28.8259 24.953 28.2505 24.3781C27.823 23.9499 27.5318 23.4048 27.4134 22.8115C27.295 22.2181 27.3549 21.603 27.5853 21.0436L23.4498 16.9094V27.791C23.8863 28.0066 24.2652 28.3231 24.555 28.7143C24.8448 29.1055 25.0373 29.5601 25.1164 30.0405C25.1955 30.5208 25.1591 31.0131 25.0101 31.4766C24.8611 31.9401 24.6038 32.3614 24.2595 32.7057C23.9749 32.9903 23.6371 33.2161 23.2652 33.3702C22.8934 33.5242 22.4948 33.6035 22.0923 33.6035C21.6898 33.6035 21.2912 33.5242 20.9194 33.3702C20.5475 33.2161 20.2097 32.9903 19.9251 32.7057C19.6404 32.4211 19.4145 32.0832 19.2605 31.7113C19.1064 31.3394 19.0271 30.9408 19.0271 30.5382C19.0271 30.1357 19.1064 29.7371 19.2605 29.3652C19.4145 28.9933 19.6404 28.6554 19.9251 28.3708C20.2119 28.0834 20.5528 27.8557 20.9281 27.7009V16.7192C20.5543 16.5652 20.2146 16.3389 19.9286 16.0533C19.6426 15.7677 19.4158 15.4284 19.2612 15.0549C19.1067 14.6814 19.0275 14.281 19.0282 13.8768C19.0289 13.4726 19.1094 13.0725 19.2652 12.6995L14.73 8.16349L2.75366 20.1368C2.27105 20.6204 2 21.2757 2 21.9588C2 22.642 2.27105 23.2973 2.75366 23.7808L20.2194 41.2466C20.7029 41.729 21.3581 42 22.0412 42C22.7242 42 23.3794 41.729 23.863 41.2466L41.2468 23.8627C41.7294 23.3791 42.0005 22.7239 42.0005 22.0407C42.0005 21.3575 41.7294 20.7022 41.2468 20.2187Z" fill="#F03C2E"/>
</svg>
