<svg width="45" height="45" viewBox="0 0 45 45" fill="none" xmlns="http://www.w3.org/2000/svg">
<path fill-rule="evenodd" clip-rule="evenodd" d="M22.0165 2C10.9479 2 2 10.9375 2 21.9943C2 30.8327 7.73324 38.3141 15.6868 40.9621C16.6812 41.1611 17.0454 40.5318 17.0454 40.0025C17.0454 39.539 17.0126 37.9501 17.0126 36.2947C11.4445 37.4866 10.285 33.9112 10.285 33.9112C9.39015 31.594 8.06429 30.9984 8.06429 30.9984C6.24185 29.7736 8.19704 29.7736 8.19704 29.7736C10.2186 29.906 11.2794 31.8259 11.2794 31.8259C13.0686 34.8712 15.9518 34.0107 17.1118 33.481C17.2773 32.1899 17.8079 31.2962 18.3713 30.7998C13.9303 30.3362 9.25781 28.615 9.25781 20.9348C9.25781 18.75 10.0527 16.9625 11.3122 15.5724C11.1134 15.0759 10.4173 13.0231 11.5113 10.2757C11.5113 10.2757 13.2014 9.74594 17.0122 12.3281C18.6438 11.8904 20.3263 11.6677 22.0165 11.6659C23.7067 11.6659 25.4295 11.8978 27.0205 12.3281C30.8317 9.74594 32.5218 10.2757 32.5218 10.2757C33.6158 13.0231 32.9192 15.0759 32.7205 15.5724C34.0132 16.9625 34.7753 18.75 34.7753 20.9348C34.7753 28.615 30.1028 30.3029 25.6287 30.7998C26.358 31.4286 26.9873 32.6202 26.9873 34.5072C26.9873 37.1884 26.9545 39.3403 26.9545 40.0021C26.9545 40.5318 27.3192 41.1611 28.3132 40.9625C36.2667 38.3137 41.9999 30.8327 41.9999 21.9943C42.0327 10.9375 33.052 2 22.0165 2Z" fill="black"/>
</svg>
