<svg width="554" height="100" viewBox="0 0 554 100" fill="none" xmlns="http://www.w3.org/2000/svg">
<path d="M37.3361 29.8143C39.0192 29.1801 40.5315 28.7752 42.0292 28.3508C45.4442 27.3214 48.8592 27.4482 52.318 28.1947C57.2085 29.2249 61.8051 31.3406 65.7682 34.3855C70.0125 37.6493 72.764 41.9472 74.3446 47.0209C77.4766 57.1 75.2764 69.2134 68.3684 77.2678C61.8702 84.8442 53.7328 89.4007 43.7806 90.6692C35.209 91.7571 27.1936 90.0008 19.6172 85.9321C14.0867 83.0044 9.37208 78.7459 5.8988 73.5406C2.73263 68.8036 0.654378 63.647 0.127496 57.9537C-0.599405 50.0505 1.79108 43.162 7.06477 37.259C8.71908 35.392 10.6469 33.7866 12.7824 32.4975C16.3838 30.2562 20.7183 29.5104 24.8617 30.4193C29.3255 31.3462 33.4528 32.9854 37.058 35.8296C39.6826 37.9078 41.7072 40.4349 42.6195 43.7279C42.7413 44.1678 42.839 44.6141 42.9122 45.0646C42.9513 45.3037 43.0537 45.6257 42.6927 45.7281C42.3317 45.8306 41.9853 45.9574 41.717 45.6013C41.4926 45.3232 41.2828 45.0256 41.0486 44.7573C37.1704 40.2254 31.7053 37.3488 25.7739 36.7175C24.2771 36.544 22.7634 36.5784 21.2759 36.8199C19.2174 37.1486 17.3217 38.1384 15.8754 39.6397C11.7433 43.806 9.40159 48.7577 9.78211 54.7241C10.0504 58.8904 11.675 62.603 14.1728 65.9106C18.1657 71.223 23.8207 75.0473 30.2378 76.7751C38.3801 79.0875 46.337 78.507 53.9085 74.6432C57.8113 72.6576 61.075 69.95 63.2704 66.0813C64.8832 63.2192 65.9253 60.0713 66.339 56.8121C66.6787 54.3123 66.6968 51.7792 66.3926 49.2748C65.9901 46.4637 64.8069 43.8218 62.9776 41.6497C60.0477 38.0023 56.2196 35.1796 51.8692 33.4586C48.3128 31.995 44.5514 31.1754 40.7998 30.4778C39.7265 30.2778 38.6435 30.068 37.3361 29.8143Z" fill="#F58321"/>
<path d="M344.767 61.8711C346.069 59.466 347.338 57.1389 348.596 54.807C351.927 48.6275 355.254 42.461 358.578 36.3076C358.653 36.0776 358.806 35.8805 359.009 35.7492C359.212 35.6178 359.454 35.56 359.695 35.5855C360.339 35.6343 361.159 35.2928 361.602 35.6733C362.046 36.0539 361.9 36.9515 361.978 37.6248C362.492 42.0447 362.996 46.4663 363.49 50.8895C363.851 54.0752 364.178 57.2657 364.549 60.4514C364.949 63.8664 365.33 67.2814 365.847 70.6963L365.876 70.8915C366.003 71.8282 366.008 71.8135 365.052 71.6964C363.357 71.5159 361.648 71.5356 359.958 71.755C359.041 71.8623 358.983 71.8477 358.924 70.9012C358.724 68.6522 358.573 66.3983 358.383 64.1493C357.963 59.2708 357.529 54.4362 356.978 49.5869C356.939 49.2454 356.89 48.9039 356.841 48.5137C356.49 48.7088 356.421 49.0015 356.285 49.2601C352.382 56.3193 348.591 63.4078 345.333 70.7842C345.089 71.3306 344.845 71.633 344.181 71.5745C343.518 71.5159 342.932 71.8086 342.444 71.5208C341.957 71.233 341.854 70.5451 341.605 70.0036C338.273 63.0663 334.707 56.251 331.199 49.4064C331.102 49.2113 331.053 48.9674 330.77 48.8551C330.582 49.7044 330.463 50.5674 330.414 51.4359C329.872 56.4803 329.287 61.5198 328.911 66.5593C328.799 68.0961 328.78 69.6328 328.677 71.1696C328.643 71.633 328.511 71.7745 328.019 71.716C325.052 71.4273 322.065 71.4143 319.096 71.6769C318.413 71.7208 317.681 71.9404 317.057 71.7696C316.432 71.5989 316.242 70.7939 315.871 70.267C312.581 65.5372 309.053 60.9779 305.299 56.6071C304.855 56.1193 304.392 55.6314 303.772 54.9436C303.704 60.6758 303.855 66.1642 304.177 71.7696C301.845 71.4897 299.487 71.5159 297.162 71.8477C297.092 71.8126 297.035 71.7565 297 71.6873C296.964 71.6181 296.95 71.5394 296.962 71.4623C297.181 67.6717 297.333 63.8762 297.362 60.0758C297.401 54.4069 297.42 48.7381 297.269 43.0741C297.216 41.0446 297.084 39.0151 296.986 36.9905C296.957 36.3612 296.986 36.3124 297.62 36.3466C300.801 36.5076 303.963 36.3466 307.153 36.3466C307.973 36.3466 308.787 36.3076 309.592 36.2588C311.948 36.059 314.319 36.3463 316.559 37.1028C320.154 38.4004 321.725 41.069 321.569 44.7767C321.428 48.26 319.53 50.6309 316.647 52.3091C315.165 53.1557 313.552 53.7508 311.876 54.0703C311.656 54.1142 311.417 54.0947 311.236 54.2703C311.568 55.0606 322.242 68.5303 323.282 69.4328C323.467 68.2229 323.652 67.0667 323.823 65.9154C324.521 61.2222 325.238 56.5291 325.901 51.831C326.389 48.4941 326.775 45.1475 327.194 41.8057C327.414 40.0201 327.599 38.2297 327.814 36.4393C327.906 35.6441 327.921 35.6294 328.692 35.6294C329.463 35.6294 330.224 35.3367 330.824 35.6636C331.424 35.9905 331.546 36.8686 331.863 37.5126C335.766 45.4451 339.908 53.2507 344.118 61.0222C344.254 61.3584 344.478 61.6517 344.767 61.8711ZM303.753 46.4988C303.753 47.577 303.753 49.6357 303.753 51.6993C303.753 52.5628 303.753 52.558 304.597 52.675C306.458 52.9137 308.35 52.6631 310.085 51.9481C312.871 50.8358 314.598 48.8649 314.905 45.8256C315.242 42.513 313.886 39.7274 310.353 38.6493C308.426 38.1173 306.407 38.0009 304.431 38.3078C303.987 38.3614 304.021 38.6444 304.011 38.9371C303.938 41.1373 303.865 43.3278 303.753 46.4988Z" fill="#09A752"/>
<path d="M191.8 71.6233C188.805 70.6476 187.058 68.6962 187.136 65.3934C187.205 62.7005 188.946 60.6856 192.376 59.3001C192.215 58.9245 191.825 58.8903 191.532 58.7342C188.288 57.0218 186.073 54.485 185.356 50.8163C184.726 47.5916 185.034 44.4743 186.77 41.6203C188.507 38.7664 191.19 37.2296 194.332 36.3954C196.759 35.8287 199.259 35.6443 201.743 35.849C205.602 36.0393 209.446 36.5223 213.319 36.3369C214.485 36.2832 215.651 36.1808 216.895 36.0929C216.827 36.9681 216.827 37.8473 216.895 38.7225C216.949 39.2103 216.583 39.1128 216.305 39.0932C214.842 38.9664 213.378 38.82 211.914 38.7127C210.849 38.5739 209.773 38.5298 208.699 38.581C208.553 38.8883 208.831 38.9176 208.963 39.0152C212.022 41.2349 213.485 44.2938 213.607 48.0063C213.724 51.4847 212.632 54.5192 209.997 56.8901C208.29 58.3402 206.239 59.3264 204.04 59.7538C201.601 60.3246 199.098 60.2417 196.61 60.1002C196.023 60.0367 195.43 60.0465 194.844 60.1295C192.078 60.71 190.942 63.3981 192.278 65.9203C192.622 66.4905 193.175 66.9037 193.82 67.0716C194.611 67.309 195.433 67.429 196.259 67.4278C199.562 67.5546 202.874 67.54 206.172 67.7546C208.039 67.8583 209.878 68.2551 211.622 68.9303C215.524 70.4768 217.588 73.4966 217.383 77.7117C217.086 83.844 214.022 88.1859 208.524 90.8106C206.011 91.9531 203.284 92.55 200.523 92.562C197.508 92.7097 194.49 92.3216 191.61 91.4155C190.146 90.9334 188.77 90.2166 187.536 89.2933C182.746 85.693 182.78 78.863 186.483 75.0627C187.75 73.7774 189.279 72.7792 190.966 72.1355C191.234 72.0136 191.61 72.0282 191.8 71.6233ZM200.582 72.1551C200.186 72.1551 199.796 72.1551 199.401 72.1551C197.098 72.2429 194.835 72.5307 192.732 73.5503C191.851 73.9548 191.066 74.5406 190.427 75.2695C189.788 75.9983 189.31 76.8538 189.024 77.78C188.629 79.0993 188.483 80.4808 188.595 81.8536C188.819 85.8149 191.01 88.6543 194.81 89.7714C198.251 90.8195 201.94 90.7185 205.319 89.4836C207.751 88.7054 209.775 86.995 210.948 84.727C211.733 83.0216 212.019 81.129 211.773 79.268C211.519 76.2433 210.041 74.1406 207.129 73.0869C205.014 72.4105 202.801 72.0955 200.582 72.1551ZM190.932 48.2795C190.885 50.1021 191.217 51.9145 191.908 53.602C192.306 54.6281 192.933 55.5498 193.741 56.2971C194.549 57.0444 195.517 57.5976 196.571 57.9146C197.294 58.124 198.039 58.2468 198.791 58.2805C201.855 58.4805 204.392 57.456 205.943 54.7582C207.082 52.8718 207.738 50.7331 207.852 48.5323C207.966 46.3314 207.535 44.1364 206.597 42.1423C206.139 41.1009 205.432 40.1883 204.538 39.4854C203.643 38.7825 202.59 38.311 201.469 38.1127C200.41 37.8872 199.319 37.846 198.245 37.9907C197.05 38.1073 195.901 38.5077 194.893 39.1586C193.885 39.8095 193.047 40.692 192.449 41.7325C191.283 43.6791 190.912 45.811 190.932 48.2795Z" fill="#231F20"/>
<path d="M59.5627 5.85093C54.681 7.9049 49.953 10.3064 45.415 13.037C41.9598 15.0489 38.6868 17.3587 35.6335 19.9401C35.0188 20.4719 34.4188 21.0183 33.7114 21.6476C33.6164 20.9565 33.6164 20.2556 33.7114 19.5645C33.8949 16.5848 34.6104 13.662 35.8238 10.9344C36.5886 9.1892 37.6935 7.61391 39.0739 6.30052C40.4543 4.98712 42.0826 3.96193 43.8636 3.28482C47.8712 1.7525 52.0672 0.767914 56.338 0.357703C59.4002 0.0344008 62.4815 -0.0699394 65.5584 0.045477C67.2462 0.0727399 68.93 0.216183 70.598 0.474788C70.6408 0.548951 70.6633 0.633079 70.6633 0.718715C70.6633 0.804351 70.6408 0.888479 70.598 0.962642C67.7733 6.81688 64.7437 12.5345 60.8409 17.7546C60.3531 18.3839 59.8652 18.9888 59.3773 19.5938C57.7992 21.5137 55.6899 22.9255 53.3133 23.6527C50.1536 24.6245 46.9149 25.3183 43.6343 25.7261C42.0829 25.931 40.5218 26.1017 38.9607 26.292C38.6906 26.35 38.4112 26.35 38.1411 26.292C38.2395 25.8608 38.4365 25.4584 38.7168 25.1163C40.6682 21.9013 43.2392 19.1888 45.9955 16.652C50.0301 12.9346 54.4842 9.75863 59.0066 6.68028C59.2749 6.4949 59.5383 6.29975 59.8067 6.10461C59.9541 6.07304 60.0902 6.00184 60.2002 5.89869C60.3103 5.79553 60.3901 5.66433 60.4311 5.51919C60.271 5.5089 60.1106 5.53321 59.9608 5.59045C59.8109 5.64769 59.6752 5.73653 59.5627 5.85093Z" fill="#09A752"/>
<path d="M267.3 36.2539C267.3 37.3321 267.344 38.3126 267.3 39.2884C267.105 43.0204 266.998 46.7476 267.013 50.509C267.013 51.3725 267.013 51.3676 267.739 51.392C273.438 51.6018 279.136 51.5481 284.814 51.4896C286.468 51.4896 286.468 51.4603 286.463 49.8016C286.463 45.6061 286.244 41.4203 286.083 37.2345C286.083 36.9759 286.083 36.7222 286.083 36.3564C288.434 36.6553 290.815 36.6224 293.157 36.2588C293.191 39.2152 292.913 42.113 292.874 45.0401C292.835 47.9673 292.8 50.9968 292.8 53.9776C292.8 56.9584 292.8 59.8758 292.879 62.8224C292.957 65.769 293.093 68.701 293.205 71.6721C292.542 71.8379 291.981 71.5891 291.405 71.5794C289.835 71.5257 288.263 71.5893 286.702 71.7696C286.068 71.8477 286.053 71.8135 286.078 71.1647C286.219 67.3692 286.419 63.5737 286.454 59.7733C286.454 58.0366 286.454 56.2998 286.454 54.5679C286.454 53.8752 286.454 53.8556 285.751 53.8508C279.721 53.7873 273.696 53.6361 267.671 53.8508C266.998 53.8508 266.978 53.8508 266.983 54.5679C266.983 58.4024 266.944 62.2321 267.164 66.0617C267.271 67.9205 267.305 69.7792 267.374 71.6623C266.749 71.8672 266.183 71.5891 265.612 71.5794C264.075 71.5198 262.535 71.5802 261.007 71.7599C260.227 71.8672 260.236 71.7599 260.266 71.0525C260.344 69.2523 260.417 67.457 260.47 65.6568C260.714 57.7634 260.685 49.8699 260.47 41.9764C260.422 40.308 260.324 38.6395 260.27 36.9711C260.27 36.3564 260.27 36.3173 260.929 36.3954C263.05 36.6194 265.191 36.5719 267.3 36.2539Z" fill="#09A752"/>
<path d="M145.152 36.5272C147.184 36.9813 149.291 36.9813 151.323 36.5272C151.543 37.5419 151.25 38.4786 151.255 39.4543C151.26 40.43 151.255 41.4057 151.255 42.4644C151.674 42.279 151.806 41.9326 152.001 41.6643C153.64 39.4201 155.645 37.6248 158.285 36.6638C161.623 35.3831 165.318 35.3831 168.656 36.6638C171.891 37.8834 173.852 40.3129 174.818 43.5815C175.352 45.4752 175.587 47.4404 175.516 49.4065C175.379 55.4656 175.12 61.5199 175.218 67.579C175.242 68.9548 175.296 70.3305 175.33 71.7014C175.359 71.8294 175.362 71.9619 175.339 72.091C175.315 72.2201 175.266 72.3431 175.194 72.4527C173.25 71.999 171.229 71.999 169.286 72.4527C169.286 71.155 169.247 69.9207 169.286 68.6865C169.515 62.7639 169.774 56.8414 169.671 50.9091C169.673 49.0748 169.405 47.2501 168.876 45.4939C168.578 44.5216 168.13 43.6016 167.549 42.7668C166.948 41.8639 166.147 41.1119 165.207 40.5695C164.268 40.0271 163.216 39.7089 162.134 39.6397C160.858 39.5301 159.572 39.6306 158.329 39.9373C155.089 40.7374 153.065 42.8644 152.045 45.9623C151.438 47.9715 151.155 50.0646 151.206 52.1629C151.206 57.5 151.162 62.842 151.46 68.1742C151.533 69.3841 151.655 70.6135 151.747 71.7941C151.747 71.9844 151.747 72.1746 151.747 72.4332C150.638 72.2544 149.519 72.1453 148.396 72.1063C147.302 72.1437 146.211 72.2561 145.132 72.4429C145.917 60.4841 145.924 48.4869 145.152 36.5272Z" fill="#231F20"/>
<path d="M241.381 53.8996C237.288 53.8167 233.195 53.802 229.101 54.0264C228.34 54.0655 228.331 54.0655 228.297 54.7631C228.105 57.2541 228.448 59.7572 229.301 62.1053C231.082 66.6423 234.375 69.3109 239.22 69.9792C244.064 70.6476 248.196 68.8425 251.796 65.6812C252.016 65.4861 252.211 65.2666 252.426 65.0617C252.543 64.9495 252.66 64.8129 252.84 64.9251C253.021 65.0373 252.997 65.1983 252.977 65.3641C252.865 66.3057 252.743 67.2473 252.65 68.1888C252.613 68.3979 252.526 68.5952 252.398 68.7647C252.27 68.9343 252.104 69.0712 251.914 69.1645C249.238 71.1343 246.136 72.4448 242.859 72.9893C236.975 73.8869 231.638 72.5453 227.174 68.5303C224.182 65.8584 222.291 62.1679 221.871 58.1781C221.269 53.7721 221.874 49.285 223.623 45.1963C225.935 39.8592 230.067 36.8345 235.79 35.9759C238.615 35.5142 241.506 35.6808 244.259 36.4637C249.947 38.1419 253.158 42.0545 254.245 47.8063C254.537 49.6519 254.598 51.5267 254.426 53.3873C254.387 54.0508 254.367 54.0655 253.66 54.0557C251.465 54.0216 249.269 53.9533 247.079 53.9289C245.181 53.8996 243.278 53.8996 241.381 53.8996ZM238.371 51.4603L247.601 51.2554C248.362 51.2554 248.381 51.2164 248.367 50.4895C248.409 47.8628 247.871 45.2593 246.791 42.8644C246.079 41.2668 244.865 39.9459 243.332 39.103C241.466 38.1431 239.329 37.85 237.273 38.2724C235.218 38.6948 233.369 39.8072 232.033 41.4252C229.887 44.0498 228.955 47.1526 228.565 50.4554C228.477 51.2115 228.487 51.231 229.238 51.2506C232.263 51.3432 235.326 51.4067 238.371 51.4603Z" fill="#231F20"/>
<path d="M136.604 69.911C136.692 71.5453 136.863 71.3746 135.399 71.8624C134.22 72.2617 132.981 72.4596 131.736 72.4478C129.135 72.4137 127.433 71.0574 126.804 68.5206C126.755 68.3303 126.696 68.145 126.633 67.9157C126.277 68.0035 126.101 68.2913 125.881 68.506C124.641 69.7707 123.216 70.8414 121.657 71.6819C118.003 73.5065 114.217 73.9992 110.387 72.3307C107.026 70.8672 105.021 68.2816 104.821 64.5495C104.601 60.6954 106.08 57.6561 109.48 55.6754C111.386 54.6477 113.461 53.9733 115.607 53.685C118.281 53.2313 120.974 52.8751 123.589 52.1141C124.224 51.9527 124.835 51.71 125.408 51.3921C125.787 51.1946 126.107 50.8989 126.332 50.5359C126.558 50.1728 126.682 49.7558 126.691 49.3285C126.832 47.561 126.619 45.7834 126.067 44.0987C125.047 41.2252 123.067 39.4348 120.022 39.0201C118.496 38.7792 116.937 38.8495 115.439 39.2268C113.941 39.6041 112.534 40.2805 111.304 41.2155C110.438 41.8672 109.705 42.6786 109.143 43.6059C109.007 43.8352 108.885 44.0548 108.558 44.0401C108.304 44.0401 108.104 44.006 108.104 43.6791C108.104 42.601 108.104 41.5179 108.104 40.4398C108.11 40.3252 108.144 40.214 108.205 40.1167C108.266 40.0194 108.35 39.9391 108.45 39.8836C113.129 36.3906 118.305 34.8831 124.062 36.2637C128.155 37.2395 130.936 39.7812 132.067 43.9426C132.477 45.4451 132.424 46.9868 132.409 48.5284C132.355 53.9972 132.097 59.4612 132.136 64.93C132.112 65.7824 132.169 66.635 132.306 67.4766C132.711 69.4963 133.77 70.2769 135.775 70.0427C136.034 69.9988 136.287 69.9549 136.604 69.911ZM126.647 53.6752C126.571 53.6405 126.488 53.6225 126.403 53.6225C126.319 53.6225 126.236 53.6405 126.16 53.6752C124.008 54.2363 121.808 54.5778 119.637 55.0412C118.097 55.3436 116.597 55.825 115.168 56.4755C112.192 57.8854 110.748 60.2125 110.909 63.5396C111.114 67.9303 114.578 70.7501 118.905 70.0281C121.832 69.5402 124.076 67.9498 125.881 65.6374C126.266 65.1541 126.471 64.5524 126.462 63.9348C126.516 60.7637 126.608 57.5927 126.686 54.4168C126.706 54.1826 126.794 53.8996 126.647 53.6752Z" fill="#231F20"/>
<path d="M89.0583 72.4771C87.13 72.0406 85.1272 72.0523 83.2041 72.5112C83.5065 60.5198 83.5114 48.582 83.1455 36.5369C85.1462 36.9766 87.2186 36.9766 89.2193 36.5369C88.9559 38.9553 88.8581 41.3888 88.9266 43.8205C89.2876 43.64 89.3559 43.3327 89.4925 43.1083C90.5913 41.086 92.0571 39.2861 93.8149 37.8004C95.4736 36.4735 97.3274 35.6539 99.5081 35.7661C100.005 35.8054 100.495 35.8987 100.972 36.0442C101.274 36.1271 101.372 36.3027 101.289 36.6296C100.975 38.137 100.846 39.6768 100.903 41.2154C100.903 41.3813 100.903 41.5471 100.903 41.7033C100.869 42.5521 100.664 42.6497 99.9277 42.2692C98.9088 41.6953 97.7559 41.4024 96.5867 41.4204C95.4175 41.4384 94.274 41.7667 93.2734 42.3716C91.8078 43.2727 90.681 44.6328 90.0682 46.2403C89.2883 48.1574 88.9161 50.216 88.9754 52.2848C88.9754 56.2169 89.0241 60.1441 89.029 64.0762C89.029 66.7301 89.029 69.3841 89.2534 72.0282C89.2666 72.1138 89.2553 72.2014 89.2207 72.2809C89.1862 72.3603 89.1299 72.4283 89.0583 72.4771Z" fill="#231F20"/>
<path d="M236.766 93.187C235.587 93.187 234.55 92.932 233.655 92.422C232.771 91.9007 232.08 91.1753 231.581 90.246C231.094 89.3167 230.85 88.2343 230.85 86.999C230.85 86.0583 230.986 85.214 231.258 84.466C231.541 83.7067 231.944 83.0607 232.465 82.528C232.986 81.984 233.61 81.5647 234.335 81.27C235.072 80.9753 235.882 80.828 236.766 80.828C237.967 80.828 239.01 81.083 239.894 81.593C240.778 82.103 241.464 82.8227 241.951 83.752C242.45 84.67 242.699 85.7467 242.699 86.982C242.699 87.9227 242.557 88.7727 242.274 89.532C241.991 90.2913 241.588 90.943 241.067 91.487C240.546 92.031 239.922 92.4503 239.197 92.745C238.472 93.0397 237.661 93.187 236.766 93.187ZM236.766 90.943C237.435 90.943 238.001 90.79 238.466 90.484C238.942 90.1667 239.305 89.7133 239.554 89.124C239.815 88.5233 239.945 87.815 239.945 86.999C239.945 85.7523 239.667 84.789 239.112 84.109C238.557 83.4177 237.775 83.072 236.766 83.072C236.109 83.072 235.542 83.225 235.066 83.531C234.59 83.837 234.227 84.2847 233.978 84.874C233.729 85.4633 233.604 86.1717 233.604 86.999C233.604 88.2343 233.882 89.2033 234.437 89.906C234.992 90.5973 235.769 90.943 236.766 90.943ZM246.063 93.153C245.633 93.153 245.304 93.034 245.077 92.796C244.851 92.558 244.737 92.2237 244.737 91.793V82.358C244.737 81.916 244.851 81.5817 245.077 81.355C245.315 81.1283 245.65 81.015 246.08 81.015H250.211C251.549 81.015 252.58 81.355 253.305 82.035C254.031 82.7037 254.393 83.6387 254.393 84.84C254.393 86.0413 254.031 86.982 253.305 87.662C252.58 88.342 251.549 88.682 250.211 88.682H247.372V91.793C247.372 92.2237 247.259 92.558 247.032 92.796C246.817 93.034 246.494 93.153 246.063 93.153ZM247.372 86.642H249.769C250.449 86.642 250.965 86.489 251.316 86.183C251.679 85.877 251.86 85.4293 251.86 84.84C251.86 84.2507 251.679 83.8087 251.316 83.514C250.965 83.2193 250.449 83.072 249.769 83.072H247.372V86.642ZM257.403 93C256.961 93 256.621 92.881 256.383 92.643C256.145 92.405 256.026 92.065 256.026 91.623V82.392C256.026 81.95 256.145 81.61 256.383 81.372C256.621 81.134 256.961 81.015 257.403 81.015H263.336C263.676 81.015 263.931 81.1057 264.101 81.287C264.283 81.457 264.373 81.7063 264.373 82.035C264.373 82.375 264.283 82.6357 264.101 82.817C263.931 82.987 263.676 83.072 263.336 83.072H258.542V85.877H262.945C263.297 85.877 263.557 85.9677 263.727 86.149C263.909 86.319 263.999 86.574 263.999 86.914C263.999 87.254 263.909 87.5147 263.727 87.696C263.557 87.866 263.297 87.951 262.945 87.951H258.542V90.943H263.336C263.676 90.943 263.931 91.0337 264.101 91.215C264.283 91.385 264.373 91.6343 264.373 91.963C264.373 92.303 264.283 92.5637 264.101 92.745C263.931 92.915 263.676 93 263.336 93H257.403ZM267.543 93.153C267.147 93.153 266.841 93.0453 266.625 92.83C266.421 92.6033 266.319 92.286 266.319 91.878V82.188C266.319 81.7573 266.421 81.4287 266.625 81.202C266.841 80.9753 267.124 80.862 267.475 80.862C267.781 80.862 268.014 80.9243 268.172 81.049C268.342 81.1623 268.535 81.355 268.75 81.627L274.717 89.226H274.258V82.12C274.258 81.7233 274.36 81.4173 274.564 81.202C274.78 80.9753 275.086 80.862 275.482 80.862C275.879 80.862 276.179 80.9753 276.383 81.202C276.599 81.4173 276.706 81.7233 276.706 82.12V91.929C276.706 92.303 276.61 92.6033 276.417 92.83C276.225 93.0453 275.964 93.153 275.635 93.153C275.318 93.153 275.063 93.0907 274.87 92.966C274.689 92.8413 274.491 92.643 274.275 92.371L268.325 84.772H268.767V91.878C268.767 92.286 268.665 92.6033 268.461 92.83C268.257 93.0453 267.951 93.153 267.543 93.153ZM288.151 93.187C287.675 93.187 287.188 93.1473 286.689 93.068C286.202 93 285.731 92.898 285.278 92.762C284.836 92.626 284.439 92.456 284.088 92.252C283.839 92.116 283.663 91.9403 283.561 91.725C283.459 91.4983 283.419 91.2717 283.442 91.045C283.476 90.8183 283.561 90.62 283.697 90.45C283.844 90.2687 284.026 90.1553 284.241 90.11C284.468 90.0533 284.717 90.093 284.989 90.229C285.454 90.4897 285.958 90.6823 286.502 90.807C287.057 90.9317 287.607 90.994 288.151 90.994C288.978 90.994 289.568 90.8693 289.919 90.62C290.27 90.3593 290.446 90.0363 290.446 89.651C290.446 89.3223 290.321 89.0617 290.072 88.869C289.823 88.6763 289.386 88.512 288.763 88.376L286.842 87.968C285.754 87.7413 284.944 87.356 284.411 86.812C283.89 86.2567 283.629 85.5313 283.629 84.636C283.629 84.0693 283.748 83.5537 283.986 83.089C284.224 82.6243 284.558 82.222 284.989 81.882C285.42 81.542 285.93 81.2813 286.519 81.1C287.12 80.9187 287.777 80.828 288.491 80.828C289.126 80.828 289.749 80.9073 290.361 81.066C290.973 81.2133 291.511 81.4343 291.976 81.729C292.203 81.865 292.356 82.0407 292.435 82.256C292.526 82.46 292.554 82.6697 292.52 82.885C292.497 83.089 292.412 83.2703 292.265 83.429C292.129 83.5877 291.953 83.6897 291.738 83.735C291.523 83.7803 291.262 83.7293 290.956 83.582C290.582 83.3893 290.185 83.2477 289.766 83.157C289.347 83.0663 288.916 83.021 288.474 83.021C287.998 83.021 287.59 83.0833 287.25 83.208C286.921 83.3327 286.666 83.5083 286.485 83.735C286.315 83.9617 286.23 84.2223 286.23 84.517C286.23 84.8457 286.349 85.112 286.587 85.316C286.825 85.52 287.239 85.6843 287.828 85.809L289.749 86.217C290.86 86.455 291.687 86.8403 292.231 87.373C292.775 87.8943 293.047 88.5857 293.047 89.447C293.047 90.0137 292.934 90.5293 292.707 90.994C292.48 91.4473 292.152 91.8383 291.721 92.167C291.29 92.4957 290.775 92.7507 290.174 92.932C289.573 93.102 288.899 93.187 288.151 93.187ZM300.317 93.187C299.138 93.187 298.101 92.932 297.206 92.422C296.322 91.9007 295.63 91.1753 295.132 90.246C294.644 89.3167 294.401 88.2343 294.401 86.999C294.401 86.0583 294.537 85.214 294.809 84.466C295.092 83.7067 295.494 83.0607 296.016 82.528C296.537 81.984 297.16 81.5647 297.886 81.27C298.622 80.9753 299.433 80.828 300.317 80.828C301.518 80.828 302.561 81.083 303.445 81.593C304.329 82.103 305.014 82.8227 305.502 83.752C306 84.67 306.25 85.7467 306.25 86.982C306.25 87.9227 306.108 88.7727 305.825 89.532C305.541 90.2913 305.139 90.943 304.618 91.487C304.096 92.031 303.473 92.4503 302.748 92.745C302.022 93.0397 301.212 93.187 300.317 93.187ZM300.317 90.943C300.985 90.943 301.552 90.79 302.017 90.484C302.493 90.1667 302.855 89.7133 303.105 89.124C303.365 88.5233 303.496 87.815 303.496 86.999C303.496 85.7523 303.218 84.789 302.663 84.109C302.107 83.4177 301.325 83.072 300.317 83.072C299.659 83.072 299.093 83.225 298.617 83.531C298.141 83.837 297.778 84.2847 297.529 84.874C297.279 85.4633 297.155 86.1717 297.155 86.999C297.155 88.2343 297.432 89.2033 297.988 89.906C298.543 90.5973 299.319 90.943 300.317 90.943ZM313.422 93.187C312.572 93.187 311.818 93.0793 311.161 92.864C310.515 92.6373 309.971 92.3087 309.529 91.878C309.087 91.4473 308.753 90.909 308.526 90.263C308.311 89.6057 308.203 88.8463 308.203 87.985V82.205C308.203 81.763 308.316 81.4287 308.543 81.202C308.77 80.9753 309.098 80.862 309.529 80.862C309.948 80.862 310.271 80.9753 310.498 81.202C310.725 81.4287 310.838 81.763 310.838 82.205V88.002C310.838 88.9767 311.059 89.7133 311.501 90.212C311.943 90.6993 312.583 90.943 313.422 90.943C314.261 90.943 314.895 90.6993 315.326 90.212C315.768 89.7133 315.989 88.9767 315.989 88.002V82.205C315.989 81.763 316.102 81.4287 316.329 81.202C316.556 80.9753 316.879 80.862 317.298 80.862C317.717 80.862 318.035 80.9753 318.25 81.202C318.477 81.4287 318.59 81.763 318.59 82.205V87.985C318.59 89.1297 318.392 90.093 317.995 90.875C317.61 91.6457 317.032 92.2237 316.261 92.609C315.502 92.9943 314.555 93.187 313.422 93.187ZM322.248 93.153C321.817 93.153 321.489 93.034 321.262 92.796C321.035 92.558 320.922 92.2237 320.922 91.793V82.358C320.922 81.916 321.035 81.5817 321.262 81.355C321.5 81.1283 321.834 81.015 322.265 81.015H326.396C327.733 81.015 328.765 81.338 329.49 81.984C330.215 82.63 330.578 83.531 330.578 84.687C330.578 85.435 330.414 86.081 330.085 86.625C329.756 87.169 329.28 87.5883 328.657 87.883C328.045 88.1777 327.291 88.325 326.396 88.325L326.532 88.036H327.229C327.705 88.036 328.119 88.155 328.47 88.393C328.833 88.6197 329.144 88.971 329.405 89.447L330.459 91.402C330.618 91.6853 330.691 91.963 330.68 92.235C330.669 92.507 330.567 92.728 330.374 92.898C330.181 93.068 329.898 93.153 329.524 93.153C329.15 93.153 328.844 93.0737 328.606 92.915C328.379 92.7563 328.175 92.5127 327.994 92.184L326.362 89.175C326.192 88.8577 325.982 88.6423 325.733 88.529C325.495 88.4157 325.2 88.359 324.849 88.359H323.557V91.793C323.557 92.2237 323.444 92.558 323.217 92.796C323.002 93.034 322.679 93.153 322.248 93.153ZM323.557 86.455H325.92C326.623 86.455 327.15 86.3133 327.501 86.03C327.864 85.7467 328.045 85.3217 328.045 84.755C328.045 84.1997 327.864 83.7803 327.501 83.497C327.15 83.2137 326.623 83.072 325.92 83.072H323.557V86.455ZM338.49 93.187C337.198 93.187 336.093 92.932 335.175 92.422C334.257 91.912 333.548 91.198 333.05 90.28C332.562 89.3507 332.319 88.257 332.319 86.999C332.319 86.0583 332.455 85.214 332.727 84.466C333.01 83.7067 333.418 83.0607 333.951 82.528C334.483 81.984 335.129 81.5647 335.889 81.27C336.659 80.9753 337.526 80.828 338.49 80.828C339.056 80.828 339.629 80.9017 340.207 81.049C340.796 81.185 341.306 81.3833 341.737 81.644C342.02 81.8027 342.213 82.001 342.315 82.239C342.417 82.477 342.445 82.715 342.4 82.953C342.366 83.191 342.269 83.395 342.111 83.565C341.963 83.735 341.776 83.8427 341.55 83.888C341.323 83.9333 341.068 83.8823 340.785 83.735C340.445 83.531 340.088 83.3837 339.714 83.293C339.34 83.2023 338.96 83.157 338.575 83.157C337.815 83.157 337.175 83.31 336.654 83.616C336.144 83.9107 335.758 84.3413 335.498 84.908C335.237 85.4747 335.107 86.1717 335.107 86.999C335.107 87.815 335.237 88.512 335.498 89.09C335.758 89.668 336.144 90.11 336.654 90.416C337.175 90.7107 337.815 90.858 338.575 90.858C338.937 90.858 339.306 90.8127 339.68 90.722C340.065 90.6313 340.433 90.4897 340.785 90.297C341.079 90.1497 341.34 90.0987 341.567 90.144C341.805 90.178 341.997 90.28 342.145 90.45C342.303 90.6087 342.4 90.8013 342.434 91.028C342.479 91.2547 342.456 91.4813 342.366 91.708C342.275 91.9347 342.105 92.1273 341.856 92.286C341.436 92.5693 340.921 92.7903 340.309 92.949C339.697 93.1077 339.09 93.187 338.49 93.187ZM345.674 93C345.232 93 344.892 92.881 344.654 92.643C344.416 92.405 344.297 92.065 344.297 91.623V82.392C344.297 81.95 344.416 81.61 344.654 81.372C344.892 81.134 345.232 81.015 345.674 81.015H351.607C351.947 81.015 352.202 81.1057 352.372 81.287C352.553 81.457 352.644 81.7063 352.644 82.035C352.644 82.375 352.553 82.6357 352.372 82.817C352.202 82.987 351.947 83.072 351.607 83.072H346.813V85.877H351.216C351.567 85.877 351.828 85.9677 351.998 86.149C352.179 86.319 352.27 86.574 352.27 86.914C352.27 87.254 352.179 87.5147 351.998 87.696C351.828 87.866 351.567 87.951 351.216 87.951H346.813V90.943H351.607C351.947 90.943 352.202 91.0337 352.372 91.215C352.553 91.385 352.644 91.6343 352.644 91.963C352.644 92.303 352.553 92.5637 352.372 92.745C352.202 92.915 351.947 93 351.607 93H345.674ZM360.664 93.153C360.233 93.153 359.905 93.034 359.678 92.796C359.451 92.558 359.338 92.2237 359.338 91.793V82.222C359.338 81.7913 359.451 81.457 359.678 81.219C359.905 80.981 360.233 80.862 360.664 80.862C361.083 80.862 361.406 80.981 361.633 81.219C361.86 81.457 361.973 81.7913 361.973 82.222V85.826H367.549V82.222C367.549 81.7913 367.662 81.457 367.889 81.219C368.116 80.981 368.439 80.862 368.858 80.862C369.289 80.862 369.617 80.981 369.844 81.219C370.071 81.457 370.184 81.7913 370.184 82.222V91.793C370.184 92.2237 370.071 92.558 369.844 92.796C369.617 93.034 369.289 93.153 368.858 93.153C368.439 93.153 368.116 93.034 367.889 92.796C367.662 92.558 367.549 92.2237 367.549 91.793V88.019H361.973V91.793C361.973 92.2237 361.86 92.558 361.633 92.796C361.418 93.034 361.095 93.153 360.664 93.153ZM373.929 93.153C373.498 93.153 373.169 93.034 372.943 92.796C372.716 92.558 372.603 92.2237 372.603 91.793V82.358C372.603 81.916 372.716 81.5817 372.943 81.355C373.181 81.1283 373.515 81.015 373.946 81.015H378.077C379.414 81.015 380.445 81.338 381.171 81.984C381.896 82.63 382.259 83.531 382.259 84.687C382.259 85.435 382.094 86.081 381.766 86.625C381.437 87.169 380.961 87.5883 380.338 87.883C379.726 88.1777 378.972 88.325 378.077 88.325L378.213 88.036H378.91C379.386 88.036 379.799 88.155 380.151 88.393C380.513 88.6197 380.825 88.971 381.086 89.447L382.14 91.402C382.298 91.6853 382.372 91.963 382.361 92.235C382.349 92.507 382.247 92.728 382.055 92.898C381.862 93.068 381.579 93.153 381.205 93.153C380.831 93.153 380.525 93.0737 380.287 92.915C380.06 92.7563 379.856 92.5127 379.675 92.184L378.043 89.175C377.873 88.8577 377.663 88.6423 377.414 88.529C377.176 88.4157 376.881 88.359 376.53 88.359H375.238V91.793C375.238 92.2237 375.124 92.558 374.898 92.796C374.682 93.034 374.359 93.153 373.929 93.153ZM375.238 86.455H377.601C378.303 86.455 378.83 86.3133 379.182 86.03C379.544 85.7467 379.726 85.3217 379.726 84.755C379.726 84.1997 379.544 83.7803 379.182 83.497C378.83 83.2137 378.303 83.072 377.601 83.072H375.238V86.455ZM390.411 93.153C390.026 93.153 389.731 93.0453 389.527 92.83C389.323 92.6147 389.221 92.3143 389.221 91.929V82.086C389.221 81.7007 389.329 81.4003 389.544 81.185C389.771 80.9697 390.077 80.862 390.462 80.862C390.802 80.862 391.069 80.93 391.261 81.066C391.465 81.1907 391.652 81.4117 391.822 81.729L395.749 88.903H395.171L399.098 81.729C399.268 81.4117 399.45 81.1907 399.642 81.066C399.846 80.93 400.113 80.862 400.441 80.862C400.827 80.862 401.121 80.9697 401.325 81.185C401.541 81.4003 401.648 81.7007 401.648 82.086V91.929C401.648 92.3143 401.546 92.6147 401.342 92.83C401.138 93.0453 400.844 93.153 400.458 93.153C400.073 93.153 399.773 93.0453 399.557 92.83C399.353 92.6147 399.251 92.3143 399.251 91.929V85.044H399.625L396.463 90.705C396.327 90.9203 396.18 91.0847 396.021 91.198C395.874 91.3 395.676 91.351 395.426 91.351C395.177 91.351 394.973 91.2943 394.814 91.181C394.656 91.0677 394.514 90.909 394.389 90.705L391.193 85.027H391.601V91.929C391.601 92.3143 391.499 92.6147 391.295 92.83C391.103 93.0453 390.808 93.153 390.411 93.153ZM404.419 93.153C404.102 93.153 403.841 93.0793 403.637 92.932C403.444 92.7847 403.32 92.5863 403.263 92.337C403.218 92.0877 403.269 91.81 403.416 91.504L407.768 81.967C407.949 81.5817 408.165 81.304 408.414 81.134C408.663 80.9527 408.952 80.862 409.281 80.862C409.61 80.862 409.899 80.9527 410.148 81.134C410.397 81.304 410.607 81.5817 410.777 81.967L415.163 91.504C415.31 91.81 415.361 92.0933 415.316 92.354C415.282 92.6033 415.169 92.8017 414.976 92.949C414.783 93.085 414.534 93.153 414.228 93.153C413.843 93.153 413.542 93.0623 413.327 92.881C413.123 92.6997 412.942 92.4163 412.783 92.031L411.763 89.668L412.817 90.399H405.728L406.782 89.668L405.779 92.031C405.609 92.4277 405.428 92.7167 405.235 92.898C405.054 93.068 404.782 93.153 404.419 93.153ZM409.247 83.82L407.071 89.005L406.612 88.342H411.933L411.474 89.005L409.281 83.82H409.247ZM418.103 93.153C417.706 93.153 417.4 93.0453 417.185 92.83C416.981 92.6033 416.879 92.286 416.879 91.878V82.188C416.879 81.7573 416.981 81.4287 417.185 81.202C417.4 80.9753 417.684 80.862 418.035 80.862C418.341 80.862 418.573 80.9243 418.732 81.049C418.902 81.1623 419.095 81.355 419.31 81.627L425.277 89.226H424.818V82.12C424.818 81.7233 424.92 81.4173 425.124 81.202C425.339 80.9753 425.645 80.862 426.042 80.862C426.439 80.862 426.739 80.9753 426.943 81.202C427.158 81.4173 427.266 81.7233 427.266 82.12V91.929C427.266 92.303 427.17 92.6033 426.977 92.83C426.784 93.0453 426.524 93.153 426.195 93.153C425.878 93.153 425.623 93.0907 425.43 92.966C425.249 92.8413 425.05 92.643 424.835 92.371L418.885 84.772H419.327V91.878C419.327 92.286 419.225 92.6033 419.021 92.83C418.817 93.0453 418.511 93.153 418.103 93.153ZM430.019 93.153C429.701 93.153 429.441 93.0793 429.237 92.932C429.044 92.7847 428.919 92.5863 428.863 92.337C428.817 92.0877 428.868 91.81 429.016 91.504L433.368 81.967C433.549 81.5817 433.764 81.304 434.014 81.134C434.263 80.9527 434.552 80.862 434.881 80.862C435.209 80.862 435.498 80.9527 435.748 81.134C435.997 81.304 436.207 81.5817 436.377 81.967L440.763 91.504C440.91 91.81 440.961 92.0933 440.916 92.354C440.882 92.6033 440.768 92.8017 440.576 92.949C440.383 93.085 440.134 93.153 439.828 93.153C439.442 93.153 439.142 93.0623 438.927 92.881C438.723 92.6997 438.541 92.4163 438.383 92.031L437.363 89.668L438.417 90.399H431.328L432.382 89.668L431.379 92.031C431.209 92.4277 431.027 92.7167 430.835 92.898C430.653 93.068 430.381 93.153 430.019 93.153ZM434.847 83.82L432.671 89.005L432.212 88.342H437.533L437.074 89.005L434.881 83.82H434.847ZM448.129 93.187C446.781 93.187 445.636 92.932 444.695 92.422C443.766 91.912 443.058 91.198 442.57 90.28C442.083 89.362 441.839 88.2853 441.839 87.05C441.839 86.098 441.981 85.2423 442.264 84.483C442.559 83.7123 442.978 83.0607 443.522 82.528C444.078 81.984 444.746 81.5647 445.528 81.27C446.322 80.9753 447.217 80.828 448.214 80.828C448.826 80.828 449.438 80.896 450.05 81.032C450.662 81.168 451.252 81.3947 451.818 81.712C452.056 81.848 452.215 82.0237 452.294 82.239C452.385 82.443 452.408 82.664 452.362 82.902C452.328 83.1287 452.238 83.3327 452.09 83.514C451.954 83.684 451.773 83.7973 451.546 83.854C451.331 83.8993 451.082 83.854 450.798 83.718C450.424 83.514 450.028 83.3667 449.608 83.276C449.189 83.174 448.73 83.123 448.231 83.123C447.427 83.123 446.752 83.276 446.208 83.582C445.664 83.8767 445.256 84.3187 444.984 84.908C444.724 85.486 444.593 86.2 444.593 87.05C444.593 88.3307 444.899 89.2997 445.511 89.957C446.135 90.6143 447.053 90.943 448.265 90.943C448.673 90.943 449.093 90.9033 449.523 90.824C449.954 90.7447 450.379 90.6313 450.798 90.484L450.305 91.555V88.291H448.775C448.435 88.291 448.175 88.206 447.993 88.036C447.812 87.866 447.721 87.6337 447.721 87.339C447.721 87.033 447.812 86.8007 447.993 86.642C448.175 86.472 448.435 86.387 448.775 86.387H451.444C451.784 86.387 452.039 86.4777 452.209 86.659C452.391 86.8403 452.481 87.101 452.481 87.441V91.385C452.481 91.6797 452.425 91.929 452.311 92.133C452.198 92.337 452.005 92.4843 451.733 92.575C451.223 92.7563 450.651 92.9037 450.016 93.017C449.382 93.1303 448.753 93.187 448.129 93.187ZM456.19 93C455.748 93 455.408 92.881 455.17 92.643C454.932 92.405 454.813 92.065 454.813 91.623V82.392C454.813 81.95 454.932 81.61 455.17 81.372C455.408 81.134 455.748 81.015 456.19 81.015H462.123C462.463 81.015 462.718 81.1057 462.888 81.287C463.07 81.457 463.16 81.7063 463.16 82.035C463.16 82.375 463.07 82.6357 462.888 82.817C462.718 82.987 462.463 83.072 462.123 83.072H457.329V85.877H461.732C462.084 85.877 462.344 85.9677 462.514 86.149C462.696 86.319 462.786 86.574 462.786 86.914C462.786 87.254 462.696 87.5147 462.514 87.696C462.344 87.866 462.084 87.951 461.732 87.951H457.329V90.943H462.123C462.463 90.943 462.718 91.0337 462.888 91.215C463.07 91.385 463.16 91.6343 463.16 91.963C463.16 92.303 463.07 92.5637 462.888 92.745C462.718 92.915 462.463 93 462.123 93H456.19ZM466.33 93.153C465.945 93.153 465.65 93.0453 465.446 92.83C465.242 92.6147 465.14 92.3143 465.14 91.929V82.086C465.14 81.7007 465.248 81.4003 465.463 81.185C465.69 80.9697 465.996 80.862 466.381 80.862C466.721 80.862 466.988 80.93 467.18 81.066C467.384 81.1907 467.571 81.4117 467.741 81.729L471.668 88.903H471.09L475.017 81.729C475.187 81.4117 475.369 81.1907 475.561 81.066C475.765 80.93 476.032 80.862 476.36 80.862C476.746 80.862 477.04 80.9697 477.244 81.185C477.46 81.4003 477.567 81.7007 477.567 82.086V91.929C477.567 92.3143 477.465 92.6147 477.261 92.83C477.057 93.0453 476.763 93.153 476.377 93.153C475.992 93.153 475.692 93.0453 475.476 92.83C475.272 92.6147 475.17 92.3143 475.17 91.929V85.044H475.544L472.382 90.705C472.246 90.9203 472.099 91.0847 471.94 91.198C471.793 91.3 471.595 91.351 471.345 91.351C471.096 91.351 470.892 91.2943 470.733 91.181C470.575 91.0677 470.433 90.909 470.308 90.705L467.112 85.027H467.52V91.929C467.52 92.3143 467.418 92.6147 467.214 92.83C467.022 93.0453 466.727 93.153 466.33 93.153ZM481.375 93C480.933 93 480.593 92.881 480.355 92.643C480.117 92.405 479.998 92.065 479.998 91.623V82.392C479.998 81.95 480.117 81.61 480.355 81.372C480.593 81.134 480.933 81.015 481.375 81.015H487.308C487.648 81.015 487.903 81.1057 488.073 81.287C488.254 81.457 488.345 81.7063 488.345 82.035C488.345 82.375 488.254 82.6357 488.073 82.817C487.903 82.987 487.648 83.072 487.308 83.072H482.514V85.877H486.917C487.268 85.877 487.529 85.9677 487.699 86.149C487.88 86.319 487.971 86.574 487.971 86.914C487.971 87.254 487.88 87.5147 487.699 87.696C487.529 87.866 487.268 87.951 486.917 87.951H482.514V90.943H487.308C487.648 90.943 487.903 91.0337 488.073 91.215C488.254 91.385 488.345 91.6343 488.345 91.963C488.345 92.303 488.254 92.5637 488.073 92.745C487.903 92.915 487.648 93 487.308 93H481.375ZM491.515 93.153C491.118 93.153 490.812 93.0453 490.597 92.83C490.393 92.6033 490.291 92.286 490.291 91.878V82.188C490.291 81.7573 490.393 81.4287 490.597 81.202C490.812 80.9753 491.096 80.862 491.447 80.862C491.753 80.862 491.985 80.9243 492.144 81.049C492.314 81.1623 492.507 81.355 492.722 81.627L498.689 89.226H498.23V82.12C498.23 81.7233 498.332 81.4173 498.536 81.202C498.751 80.9753 499.057 80.862 499.454 80.862C499.851 80.862 500.151 80.9753 500.355 81.202C500.57 81.4173 500.678 81.7233 500.678 82.12V91.929C500.678 92.303 500.582 92.6033 500.389 92.83C500.196 93.0453 499.936 93.153 499.607 93.153C499.29 93.153 499.035 93.0907 498.842 92.966C498.661 92.8413 498.462 92.643 498.247 92.371L492.297 84.772H492.739V91.878C492.739 92.286 492.637 92.6033 492.433 92.83C492.229 93.0453 491.923 93.153 491.515 93.153ZM507.273 93.153C506.842 93.153 506.513 93.034 506.287 92.796C506.06 92.558 505.947 92.2237 505.947 91.793V83.191H502.938C502.586 83.191 502.314 83.0947 502.122 82.902C501.929 82.7093 501.833 82.443 501.833 82.103C501.833 81.7517 501.929 81.4853 502.122 81.304C502.314 81.1113 502.586 81.015 502.938 81.015H511.591C511.942 81.015 512.214 81.1113 512.407 81.304C512.599 81.4853 512.696 81.7517 512.696 82.103C512.696 82.443 512.599 82.7093 512.407 82.902C512.214 83.0947 511.942 83.191 511.591 83.191H508.582V91.793C508.582 92.2237 508.468 92.558 508.242 92.796C508.026 93.034 507.703 93.153 507.273 93.153Z" fill="#939596"/>
</svg>
