<svg width="45" height="45" viewBox="0 0 45 45" fill="none" xmlns="http://www.w3.org/2000/svg">
<path d="M5.75 31.7187V39.3806C5.75004 39.7226 5.81811 40.0611 5.95024 40.3765C6.08237 40.6919 6.27593 40.9779 6.51964 41.2177C6.76336 41.4576 7.05235 41.6466 7.36981 41.7737C7.68726 41.9008 8.02683 41.9635 8.36875 41.9581L15.2712 41.8481C15.6362 41.8423 15.9957 41.759 16.326 41.6039C16.6564 41.4487 16.95 41.2252 17.1875 40.9481L37.6294 17.0994C38.0294 16.6319 38.25 16.0369 38.25 15.4213V8.32812C38.25 7.98956 38.1833 7.65431 38.0538 7.34152C37.9242 7.02873 37.7343 6.74452 37.4949 6.50512C37.2555 6.26571 36.9713 6.07581 36.6585 5.94625C36.3457 5.81669 36.0104 5.75 35.6719 5.75H28.795C28.0513 5.75 27.3444 6.07125 26.8544 6.63062L6.38812 30.0212C5.97676 30.4911 5.75 31.0943 5.75 31.7187Z" fill="#00D886"/>
<path d="M5.75 32.6344V39.4231C5.75 40.1069 6.02162 40.7626 6.50512 41.2461C6.98861 41.7296 7.64436 42.0012 8.32812 42.0012H16.1819C16.3069 42.0012 16.4319 41.9925 16.5556 41.9737L39.7962 38.5687C40.4086 38.4789 40.9681 38.1717 41.3727 37.7035C41.7773 37.2352 42 36.637 42 36.0181V26.3937C42 26.0551 41.9333 25.7197 41.8036 25.4068C41.674 25.094 41.484 24.8097 41.2444 24.5703C41.0049 24.3309 40.7206 24.141 40.4076 24.0115C40.0947 23.882 39.7593 23.8154 39.4206 23.8156L27.8556 23.8187C27.5894 23.8187 27.325 23.86 27.0719 23.9406L7.54438 30.1781C7.02351 30.3444 6.56899 30.672 6.24646 31.1135C5.92392 31.555 5.75007 32.0876 5.75 32.6344Z" fill="url(#paint0_linear_65_51)"/>
<path d="M2 4.57812V25.9075C2 26.9444 2.62063 27.8794 3.575 28.2825L26.9644 38.1562C27.2881 38.2931 27.6363 38.3625 27.9881 38.3587L39.4437 38.265C40.1236 38.2592 40.7737 37.9852 41.2524 37.5024C41.7312 37.0197 41.9999 36.3674 42 35.6875V24.6463C42 24.1425 41.8525 23.6506 41.5762 23.2294L28.3831 3.1625C28.1485 2.80537 27.8288 2.51216 27.4527 2.30924C27.0767 2.10632 26.6561 2.00005 26.2287 2H4.57812C3.89436 2 3.23861 2.27162 2.75512 2.75512C2.27162 3.23861 2 3.89436 2 4.57812Z" fill="url(#paint1_linear_65_51)"/>
<path d="M34.5 9.5H9.5V34.5H34.5V9.5Z" fill="black"/>
<path d="M22.625 29.5H12.625V31.375H22.625V29.5ZM12.6206 12.62H16.6469C17.3075 12.62 17.8869 12.7406 18.3844 12.9819C18.8831 13.2231 19.2669 13.5625 19.5375 14.0006C19.8075 14.4381 19.9425 14.9444 19.9425 15.5206C19.9425 16.0969 19.805 16.62 19.5306 17.0619C19.2556 17.5044 18.8662 17.8469 18.3619 18.0906C17.8569 18.3344 17.2675 18.4556 16.5931 18.4556H14.4494V22H12.62V12.6206L12.6206 12.62ZM17.3331 16.7637C17.5637 16.65 17.7406 16.4869 17.8656 16.275C17.9906 16.0625 18.0531 15.8137 18.0531 15.5281C18.0531 15.2425 17.9906 15.0019 17.8656 14.7944C17.7406 14.5862 17.5631 14.4256 17.3331 14.3119C17.1031 14.1981 16.8344 14.1412 16.5262 14.1412H14.4487V16.935H16.5262C16.8344 16.935 17.1031 16.8775 17.3331 16.7637ZM23.0706 21.5262C22.351 21.1129 21.758 20.5108 21.3556 19.785C20.9406 19.0456 20.7331 18.2206 20.7331 17.3094C20.7331 16.3981 20.9406 15.5731 21.3556 14.8344C21.758 14.1084 22.351 13.5061 23.0706 13.0925C23.7987 12.6706 24.6119 12.4587 25.5094 12.4587C26.2687 12.4587 26.9656 12.5994 27.5994 12.8806C28.2124 13.146 28.7549 13.5509 29.1837 14.0631C29.6043 14.5672 29.8953 15.1665 30.0312 15.8087H28.115C27.9933 15.4747 27.8028 15.1699 27.5556 14.9144C27.3037 14.6547 26.9989 14.4522 26.6619 14.3206C26.2987 14.1796 25.912 14.1091 25.5225 14.1131C24.9681 14.1131 24.4681 14.2519 24.0212 14.5287C23.5741 14.8065 23.2117 15.2014 22.9731 15.6706C22.7206 16.1556 22.5944 16.7012 22.5944 17.3081C22.5944 17.9162 22.7206 18.4619 22.9731 18.9462C23.2115 19.4157 23.574 19.8109 24.0212 20.0887C24.4681 20.3656 24.9681 20.5037 25.5225 20.5037C25.9118 20.5079 26.2984 20.4375 26.6612 20.2962C26.9957 20.1664 27.2984 19.9665 27.5492 19.7099C27.7999 19.4533 27.9929 19.1461 28.115 18.8087H30.0312C29.8951 19.4508 29.6042 20.0498 29.1837 20.5537C28.7549 21.0659 28.2124 21.4708 27.5994 21.7362C26.965 22.0175 26.2687 22.1581 25.5094 22.1581C24.6119 22.1581 23.7987 21.9475 23.0706 21.525V21.5262Z" fill="white"/>
<defs>
<linearGradient id="paint0_linear_65_51" x1="6.79437" y1="42.2456" x2="40.2037" y2="26.7556" gradientUnits="userSpaceOnUse">
<stop offset="0.1" stop-color="#00D886"/>
<stop offset="0.59" stop-color="#F0EB18"/>
</linearGradient>
<linearGradient id="paint1_linear_65_51" x1="39.4581" y1="39.2975" x2="2.83563" y2="2.675" gradientUnits="userSpaceOnUse">
<stop offset="0.3" stop-color="#F0EB18"/>
<stop offset="0.7" stop-color="#00C4F4"/>
</linearGradient>
</defs>
</svg>
