<svg width="45" height="45" viewBox="0 0 45 45" fill="none" xmlns="http://www.w3.org/2000/svg">
<path d="M37.7571 2.00131C37.8543 1.99514 37.9466 2.04509 37.9949 2.13007C38.0433 2.21505 38.0393 2.32026 37.9846 2.40129L28.1435 15.829C28.0714 15.9107 27.9679 15.9576 27.8591 15.9576C27.7504 15.9576 27.6468 15.9107 27.5747 15.829L24.1047 11.9435C24.02 11.8551 23.8999 11.8102 23.7782 11.8213C23.6566 11.8324 23.5465 11.8984 23.479 12.0007L21.6726 14.3055C21.4745 14.5583 21.2335 14.8902 21.4312 15.1433V15.1433L27.6885 21.6572C27.7606 21.7389 27.8641 21.7857 27.9729 21.7857C28.0817 21.7857 28.1852 21.7389 28.2573 21.6572L40.5444 7.77236C40.617 7.69405 40.7294 7.66745 40.8291 7.70501C40.9288 7.74257 40.9961 7.83686 40.9995 7.94378V41.0469V41.0469C41.0343 41.6171 40.6203 42.0338 40.05 41.9987V41.9987H3.95V41.9987C3.37972 42.0338 2.96569 41.6172 3.0005 41.0469V41.0469V2.95314V2.95314C2.97084 2.46721 3.44495 1.98934 3.93165 2.00065C3.93978 2.00084 3.94598 2.00107 3.95 2.00131H37.7571ZM28.0867 24.7998C26.3931 24.7699 24.761 25.4364 23.5687 26.6449C22.3764 27.8533 21.7275 29.4986 21.7725 31.1994C21.7725 35.142 24.6167 37.6561 28.3142 37.6561C30.0258 37.6989 31.7042 37.1771 33.0925 36.1705C33.2212 36.0531 33.2454 35.859 33.1494 35.7134L32.1255 34.1706C32.0104 34.038 31.8145 34.0134 31.6704 34.1135C30.7804 34.724 29.733 35.0615 28.6555 35.0849C26.7424 35.0849 25.5121 33.9242 25.2169 32.5154C25.1929 32.4009 25.1826 32.2358 25.2993 32.2279V32.2279H33.8889C34.072 32.2155 34.2178 32.069 34.2302 31.8851V31.5422C34.2302 27.5425 31.7273 24.7998 28.0867 24.7998ZM19.6108 22.6285C17.8831 21.2099 15.6969 20.4779 13.4673 20.5715C9.59913 20.5715 7.20997 22.8571 7.20997 25.5998C7.20997 31.8279 16.6528 29.8281 16.6528 32.7422C16.6528 33.6564 15.7427 34.5706 13.8086 34.5706C11.9717 34.5858 10.1995 33.8901 8.85963 32.6279C8.77964 32.5528 8.67127 32.516 8.56231 32.5269C8.45335 32.5378 8.35438 32.5955 8.29078 32.685L6.81178 34.742C6.71581 34.8876 6.73997 35.0818 6.86866 35.1991C8.40455 36.6276 10.5662 37.599 13.5811 37.599C18.0181 37.599 20.1797 35.3134 20.2935 32.3422C20.2935 26.1712 10.8506 27.9425 10.8506 25.3141C10.8506 24.3427 11.7039 23.657 13.1829 23.657C14.8132 23.6346 16.4011 24.1797 17.6768 25.1998C17.7518 25.2615 17.8484 25.2902 17.9447 25.2795C18.0411 25.2687 18.129 25.2194 18.1887 25.1427L19.6677 23.1428C19.7292 23.0675 19.7578 22.9704 19.7471 22.8736C19.7364 22.7768 19.6872 22.6885 19.6108 22.6285ZM28.1435 27.3139C29.632 27.2303 30.9247 28.3048 31.1383 29.7674C31.1552 29.8833 31.1616 30.0487 31.0447 30.0566V30.0566H25.2424V30.0566C25.1256 30.0487 25.1343 29.8834 25.1555 29.7683C25.4194 28.3363 26.677 27.2901 28.1435 27.3139Z" fill="#2CB134"/>
</svg>
